<?xml version="1.0" encoding="utf-8"?>
<!-- Generator: Adobe Illustrator 24.0.0, SVG Export Plug-In . SVG Version: 6.00 Build 0)  -->
<svg version="1.2" baseProfile="tiny" id="Lager_1" xmlns="http://www.w3.org/2000/svg" xmlns:xlink="http://www.w3.org/1999/xlink"
	 x="0px" y="0px" viewBox="0 0 841.9 595.3" xml:space="preserve">
<g>
	<g>
		<g>
			<g>
				<path d="M304.2,301.6h57.7c12.3,0,22.3-9.4,22.3-20.9v-3.9c0-11.3-9.4-20.5-21.5-20.9l-0.4,0h-39c-3.4,0-6.1-2.6-6.1-5.8v-3.8
					c0-3.2,2.8-5.8,6.1-5.8h56.5v-15.2h-56.5c-12.3,0-22.3,9.4-22.3,20.9v3.8c0,11.5,10,20.9,22.3,20.9h38.6c3.4,0,6.1,2.6,6.1,5.8
					v3.9c0,3.2-2.8,5.8-6.1,5.8h-57.7V301.6z"/>
			</g>
			<g>
				<g>
					<path d="M403.3,301.6h16.2v-76.3h-16.1L403.3,301.6z"/>
				</g>
			</g>
			<g>
				<path d="M629.3,301.6h16.2l0-55.3c0-11.6-10-20.9-22.3-20.9h-80.5v76.3h16.1v-61.1h26.9l0,61.1h16.1v-61.1h21.4
					c3.4,0,6.1,2.6,6.1,5.8L629.3,301.6z"/>
			</g>
			<g>
				<path d="M740.6,246.3c0-11.5-10-20.9-22.3-20.9h-51.3v15.2h51.3c3.4,0,6.1,2.6,6.1,5.8l0,9.5h-40.7c-12.3,0-22.3,9.4-22.3,21
					v3.9c0,11.6,10,21,22.3,21h56.8L740.6,246.3z M724.5,286.4L724.5,286.4h-40.7c-3.4,0-6.1-2.6-6.1-5.8v-3.9
					c0-3.2,2.8-5.8,6.1-5.8h40.7L724.5,286.4z"/>
			</g>
			<g>
				<path d="M441.3,280.7c0,11.5,10,20.9,22.3,20.9h56.9v-45.8h-42.5V271h26.3v15.4h-40.6c-3.4,0-6.1-2.6-6.1-5.8l0-34.4
					c0-3.2,2.8-5.8,6.1-5.8h56.7v-15.2h-56.7c-12.3,0-22.3,9.4-22.3,21L441.3,280.7z"/>
			</g>
		</g>
		<g>
			<linearGradient id="SVGID_1_" gradientUnits="userSpaceOnUse" x1="185.4906" y1="317.259" x2="134.5577" y2="214.873">
				<stop  offset="6.134970e-03" style="stop-color:#E11F27"/>
				<stop  offset="0.681" style="stop-color:#EE2A24"/>
			</linearGradient>
			<path fill="url(#SVGID_1_)" d="M177.4,173.8c-12.7,0-23.4,26.1-27.1,62.2c-36.1,3.7-62.2,14.4-62.2,27.1
				c0,12.7,26.1,23.4,62.2,27.1c3.7,36.1,14.4,62.2,27.1,62.2c15.7,0,28.4-40,28.4-89.3C205.8,213.8,193.1,173.8,177.4,173.8z"/>
			<linearGradient id="SVGID_2_" gradientUnits="userSpaceOnUse" x1="190.4371" y1="244.0855" x2="220.8934" y2="296.8374">
				<stop  offset="0" style="stop-color:#595959"/>
				<stop  offset="0.2081" style="stop-color:#424242"/>
				<stop  offset="0.5305" style="stop-color:#232323"/>
				<stop  offset="0.8059" style="stop-color:#111111"/>
				<stop  offset="1" style="stop-color:#0A0A0A"/>
			</linearGradient>
			<path fill="url(#SVGID_2_)" d="M204.5,236l-54.2,54.2c8.5,0.9,17.7,1.3,27.1,1.3c49.3,0,89.3-12.7,89.3-28.4
				C266.7,250.4,240.5,239.6,204.5,236z"/>
			<path fill="#690000" d="M204.5,236L204.5,236l-54.2,54.2c8.5,0.9,17.7,1.3,27.1,1.3c9.4,0,18.6-0.5,27.1-1.3
				c0.9-8.5,1.3-17.7,1.3-27.1C205.8,253.6,205.3,244.5,204.5,236z"/>
			<path fill="#A50D12" d="M150.3,290.2l54.2-54.2c-8.5-0.9-17.6-1.3-27.1-1.3c-9.4,0-18.6,0.5-27.1,1.3c-0.9,8.5-1.3,17.7-1.3,27.1
				C148.9,272.5,149.4,281.6,150.3,290.2C150.3,290.2,150.3,290.2,150.3,290.2z"/>
		</g>
	</g>
	<g>
		<path d="M306.2,353.3v-3.1h0.3c1.4,0.4,4.9,1.2,7.1,1.2h1.2c3.6,0,6-1.3,6-4.9c0-3.1-1.6-4.1-4.2-4.7l-3.8-1
			c-2.7-0.8-6.2-2.5-6.2-7.6c0-4.6,3.5-7.7,9.2-7.7h0.9c2.1,0,5.4,0.6,6.5,1.2v3h-0.3c-1.4-0.5-4.3-1.1-6.2-1.1h-0.9
			c-3.6,0-5.7,1.3-5.7,4.6c0,3,1.9,3.8,4.2,4.4l3.7,1.1c2.9,0.8,6.4,2.4,6.4,7.9c0,4.9-3.5,8-9.5,8h-1.2
			C311.2,354.4,307.4,353.7,306.2,353.3z"/>
		<path d="M329.6,343.5c0-6.2,3-10.4,9-10.4c6.4,0,9,4.2,9,10.4c0,6.8-3,11-9,11C332.2,354.4,329.6,350.3,329.6,343.5z M344.4,343.5
			c0-4.6-1.3-7.4-5.8-7.4s-5.8,2.8-5.8,7.4c0,4.6,1.3,8,5.8,8S344.4,348.1,344.4,343.5z"/>
		<path d="M355.3,336.3h-3.3v-3h3.3v-0.9c0-4.5,2.7-6.8,6.8-6.8h2.4v3h-2.4c-2.7,0-3.6,1.2-3.6,3.9v0.9h5.4v3h-5.4v17.8h-3.3V336.3z
			"/>
	</g>
	<g>
		<path d="M377.7,354.1c-4.4,0-7.1-2.1-7.1-7.1v-10.7h-3.3v-3h3.3v-4.7h3.3v4.7h5.9v3h-5.9v10.1c0,3.8,1.2,4.7,4.4,4.7h2.1v3H377.7z
			"/>
		<path d="M384.7,338.7v-5.4h3.3v5.4c0,5.9,1.9,10.8,3.7,13c1.8-2.2,3.7-7.1,3.7-13v-5.4h3.3v5.4c0,5.9,1.9,10.8,3.7,13
			c1.7-2.2,3.7-7.1,3.7-13v-5.4h3.3v5.4c0,7.1-3,13.3-5.1,15.4h-3.5c-1.1-1.2-3.3-4.9-3.7-7.1c-0.5,2.2-2.7,6-3.7,7.1h-3.5
			C387.7,352.1,384.7,345.8,384.7,338.7z"/>
		<path d="M414.8,347.3V344c0-6.5,5.3-10.7,11-10.7h5.6v20.8h-3.3v-3.9l-1.5,1.5c-1.5,1.5-3.3,2.7-5.9,2.7
			C417.5,354.4,414.8,352.4,414.8,347.3z M428.2,347v-10.7h-2.4c-4.5,0-7.7,3-7.7,7.7v3.3c0,3.3,1.5,4.2,3.2,4.2
			c2.1,0,4.5-2.1,5.7-3.3L428.2,347z"/>
		<path d="M439.7,333.4h3.3v4.6l0.3-0.5c1.6-2.4,3.4-4.1,6.1-4.1h1.3v3.6h-1.5c-1.5,0-2.9,0.6-3.9,1.5l-2.4,2.4v13.4h-3.3V333.4z"/>
		<path d="M454.7,346.1V342c0-5.7,3.8-8.9,8.9-8.9c4.1,0,7.1,1.8,7.1,6c0,3.7-2.4,5.9-6.5,5.9h-6.2v1.2c0,3.9,2.4,5.4,5.6,5.4
			c2.4,0,4.7-0.9,5.6-1.3h0.3v3c-0.9,0.4-3.6,1.3-5.9,1.3C458.5,354.4,454.7,352.1,454.7,346.1z M457.9,342.2h5.3
			c3.3,0,4.2-1.2,4.2-3.2c0-2.2-1.5-3-3.9-3c-3.6,0-5.6,1.8-5.6,6V342.2z"/>
	</g>
</g>
</svg>
